<svg width="40" height="40" viewBox="0 0 40 40" fill="none" xmlns="http://www.w3.org/2000/svg">
<g id="&#240;&#159;&#166;&#134; icon &#34;health&#34;">
<g id="Group">
<path id="Vector" d="M39.3289 11.4083V20.6175H31.3176C31.0819 20.5979 30.5714 20.3033 30.4536 20.0873L28.4115 16.2191C27.6064 14.6875 26.2123 13.8235 24.72 13.9021C23.2277 13.9806 21.9513 14.982 21.3034 16.6118L18.5936 23.4058L18.2009 22.3847C17.2388 19.891 14.4898 18.0059 11.78 18.0059L0.0575256 18.0648V11.4083C0.0575256 4.26095 4.31847 0 11.4659 0H27.9206C35.068 0 39.3289 4.26095 39.3289 11.4083Z" fill="#F2F2F2"/>
<path id="Vector_2" d="M39.3289 27.8605V23.5603H31.3176C30.002 23.5603 28.4508 22.6177 27.842 21.4592L25.7999 17.591C25.2501 16.5503 24.4647 16.6092 24.0327 17.6892L19.5165 29.0975C19.0256 30.3738 18.2009 30.3738 17.6904 29.0975L15.4519 23.4424C14.9218 22.0679 13.2724 20.9487 11.7997 20.9487L0.0575256 21.0076V27.8605C0.0575256 34.8901 4.18102 39.1314 11.1124 39.2492C11.3284 39.2688 11.564 39.2688 11.78 39.2688H27.4886C27.7831 39.2688 28.0777 39.2688 28.3526 39.2492C35.2447 39.0921 39.3289 34.8704 39.3289 27.8605Z" fill="#F2F2F2"/>
<path id="Vector_3" d="M0.0589071 21.0087V27.5081C0.0196356 26.8797 0 26.2121 0 25.5249V21.0087H0.0589071Z" fill="#F2F2F2"/>
</g>
</g>
</svg>
